<?xml version="1.0" encoding="UTF-8" standalone="no"?>
<!-- Created with Inkscape (http://www.inkscape.org/) -->

<svg
   width="79.224213mm"
   height="108.20803mm"
   viewBox="0 0 79.224213 108.20803"
   version="1.1"
   id="svg1"
   xml:space="preserve"
   sodipodi:docname="dguild-logo.svg"
   xmlns:inkscape="http://www.inkscape.org/namespaces/inkscape"
   xmlns:sodipodi="http://sodipodi.sourceforge.net/DTD/sodipodi-0.dtd"
   xmlns:xlink="http://www.w3.org/1999/xlink"
   xmlns="http://www.w3.org/2000/svg"
   xmlns:svg="http://www.w3.org/2000/svg"><sodipodi:namedview
     id="namedview1"
     pagecolor="#ffffff"
     bordercolor="#000000"
     borderopacity="0.25"
     inkscape:showpageshadow="2"
     inkscape:pageopacity="0.0"
     inkscape:pagecheckerboard="0"
     inkscape:deskcolor="#d1d1d1"
     inkscape:document-units="mm"
     inkscape:zoom="1.0142694"
     inkscape:cx="-1.4788971"
     inkscape:cy="274.08893"
     inkscape:window-width="1920"
     inkscape:window-height="1006"
     inkscape:window-x="-8"
     inkscape:window-y="-8"
     inkscape:window-maximized="1"
     inkscape:current-layer="svg1"><inkscape:page
       x="0"
       y="3.8055724e-21"
       width="79.224213"
       height="108.20804"
       id="page2"
       margin="0"
       bleed="0" /></sodipodi:namedview><defs
     id="defs1"><linearGradient
       id="linearGradient10"><stop
         style="stop-color:#565fff;stop-opacity:1;"
         offset="0"
         id="stop9" /><stop
         style="stop-color:#b700af;stop-opacity:1;"
         offset="1"
         id="stop10" /></linearGradient><linearGradient
       id="linearGradient5"><stop
         style="stop-color:#565fff;stop-opacity:1;"
         offset="0"
         id="stop5" /><stop
         style="stop-color:#b700af;stop-opacity:1;"
         offset="1"
         id="stop6" /></linearGradient><linearGradient
       xlink:href="#linearGradient5"
       id="linearGradient6"
       x1="73.039474"
       y1="76.337769"
       x2="144.78259"
       y2="184.27612"
       gradientUnits="userSpaceOnUse" /><linearGradient
       xlink:href="#linearGradient10"
       id="linearGradient9"
       x1="73.039474"
       y1="76.337769"
       x2="144.78259"
       y2="184.27612"
       gradientUnits="userSpaceOnUse" /><linearGradient
       xlink:href="#linearGradient10"
       id="linearGradient12"
       x1="73.039474"
       y1="76.337769"
       x2="144.76456"
       y2="183.41597"
       gradientUnits="userSpaceOnUse" /><linearGradient
       xlink:href="#linearGradient5"
       id="linearGradient14"
       x1="46.632851"
       y1="75.327576"
       x2="118.35794"
       y2="182.40576"
       gradientUnits="userSpaceOnUse" /></defs><g
     id="layer1"
     transform="translate(-65.558016,-76.132691)"><path
       style="fill:url(#linearGradient6);fill-opacity:1;fill-rule:evenodd;stroke:none;stroke-width:2.78799;stroke-linecap:round;stroke-linejoin:round"
       d="m 68.282749,180.48613 c 0.837366,-0.004 2.512101,-0.0112 3.424222,-0.0187 0.912121,-0.007 1.061669,-0.0149 1.143911,-0.086 0.08224,-0.071 0.09719,-0.20559 1.052951,-12.58025 0.955755,-12.37465 2.852159,-36.98739 3.803083,-49.34442 0.950924,-12.35704 0.956167,-12.45572 0.909458,-12.57041 -0.04671,-0.11469 -0.145336,-0.24525 -1.054288,-1.24707 -0.908951,-1.00182 -2.628066,-2.87472 -3.506402,-3.83743 -0.878336,-0.962714 -0.915714,-1.015045 -0.934406,-1.104766 -0.01869,-0.08972 -0.01869,-0.216816 -0.05683,-4.00682 -0.03814,-3.790004 -0.114422,-11.242463 -0.150352,-15.099995 -0.03593,-3.857532 -0.03151,-4.119673 0.125381,-4.252569 0.156889,-0.132895 0.466226,-0.136529 2.840636,-0.143877 2.37441,-0.0073 6.813594,-0.01841 9.209926,-0.02268 2.396332,-0.0043 2.749495,-0.0017 2.921476,0.124006 0.171981,0.125736 0.162765,0.374666 0.167168,1.867129 0.0044,1.492463 0.02243,4.228332 0.02985,5.66226 0.0074,1.433928 0.0043,1.565859 0.08301,1.633819 0.07875,0.06796 0.23943,0.07195 1.646795,0.06633 1.407364,-0.0056 4.061324,-0.02086 5.468161,-0.02807 1.406836,-0.0072 1.566341,-0.0064 1.646683,-0.09742 0.08034,-0.09104 0.08151,-0.273953 0.08741,-1.691518 0.0059,-1.417566 0.01654,-4.069625 0.02933,-5.526566 0.0128,-1.456942 0.02775,-1.718611 0.158589,-1.849451 0.13084,-0.130839 0.377555,-0.130839 2.779829,-0.131422 2.40228,-5.84e-4 6.95986,-0.0018 9.39186,-0.0023 2.432,-5.83e-4 2.73822,-5.83e-4 2.89705,0.153518 0.15884,0.154101 0.1703,0.462311 0.1767,1.997759 0.006,1.535448 0.008,4.297984 0.008,5.712965 6.7e-4,1.41498 6.7e-4,1.482238 0.0381,1.515897 0.0374,0.03366 0.11213,0.03366 1.60016,0.0095 1.48802,-0.0242 4.38903,-0.07261 5.88446,-0.100554 1.49542,-0.02794 1.58516,-0.03543 1.62255,-0.09524 0.0374,-0.05981 0.0225,-0.171964 0.0299,-1.568313 0.007,-1.396349 0.0374,-4.076741 0.0501,-5.568478 0.0127,-1.491737 0.008,-1.79465 0.17773,-1.952814 0.16948,-0.158163 0.51287,-0.171559 2.87215,-0.169275 2.35928,0.0023 6.73415,0.02025 9.09865,0.03073 2.3645,0.01048 2.71849,0.01348 2.89108,0.147959 0.17259,0.134477 0.16375,0.400401 0.15939,4.17387 -0.004,3.773468 -0.004,11.054166 -0.0123,14.830469 -0.008,3.776302 -0.0244,4.048059 -0.1028,4.264629 -0.0784,0.21657 -0.2189,0.377939 -1.08353,1.314898 -0.86462,0.93697 -2.45319,2.6493 -3.31632,3.58841 -0.86313,0.93911 -1.0005,1.10462 -1.06095,1.28298 -0.0605,0.17836 -0.0439,0.36953 0.92105,12.72194 0.965,12.35242 2.87836,36.86435 3.84143,49.17499 0.96307,12.31065 0.97571,12.41807 1.06188,12.47194 0.0862,0.0539 0.24595,0.0542 1.38643,0.083 1.14047,0.0288 3.2614,0.0859 4.4507,0.11786 1.18931,0.0319 1.44674,0.0387 1.5728,0.13767 0.12607,0.099 0.12073,0.29021 0.11553,0.86306 -0.005,0.57285 -0.0103,1.52726 -0.016,2.0787 -0.006,0.55145 -0.012,0.69992 -0.11495,0.77382 -0.10297,0.0739 -0.3026,0.0732 -2.14702,0.0711 -1.84442,-0.002 -5.33325,-0.006 -7.20502,-0.006 -1.87177,1.9e-4 -2.12615,0.004 -2.26481,-0.12363 -0.13866,-0.12779 -0.1616,-0.38732 -1.18887,-13.67792 -1.02728,-13.2906 -3.05876,-39.61051 -4.07731,-52.86128 -1.01855,-13.25077 -1.02401,-13.43051 -0.9762,-13.5758 0.0478,-0.14529 0.14888,-0.25611 1.15206,-1.29228 1.00319,-1.03617 2.90828,-2.997483 3.89078,-4.023045 0.9825,-1.025562 1.04231,-1.115281 1.0797,-1.223692 0.0374,-0.108411 0.0523,-0.2355 0.0441,-3.006611 -0.008,-2.77111 -0.0396,-8.185867 -0.059,-10.982891 -0.0194,-2.797024 -0.0269,-2.976171 -0.12247,-3.062731 -0.0956,-0.08656 -0.27928,-0.08054 -1.28607,-0.05826 -1.00679,0.02228 -2.83659,0.06081 -3.83209,0.08086 -0.9955,0.02005 -1.15667,0.02162 -1.24323,0.117261 -0.0866,0.09564 -0.0985,0.285366 -0.0821,1.667919 0.0164,1.382554 0.061,3.957819 0.0796,5.37398 0.0186,1.41616 0.0111,1.67317 -0.13068,1.817362 -0.1418,0.144192 -0.41791,0.175551 -3.35028,0.204379 -2.93236,0.02883 -8.52042,0.05512 -11.41727,0.05954 -2.89686,0.0044 -3.10172,-0.01304 -3.20218,-0.149971 -0.10046,-0.136932 -0.0965,-0.393287 -0.0949,-1.89925 0.002,-1.505962 9.9e-4,-4.261388 -0.003,-5.695186 -0.004,-1.433798 -0.0115,-1.545967 -0.09,-1.602045 -0.0785,-0.05608 -0.22802,-0.05608 -1.22346,-0.04935 -0.99543,0.0067 -2.83671,0.0202 -3.81302,0.03009 -0.97631,0.0099 -1.08761,0.01621 -1.1436,0.07976 -0.056,0.06355 -0.0567,0.184331 -0.0635,1.599845 -0.007,1.415514 -0.0198,4.125392 -0.0421,5.616428 -0.0223,1.491036 -0.0538,1.762844 -0.2127,1.894793 -0.15887,0.131948 -0.445,0.123975 -3.324036,0.11135 -2.879038,-0.01262 -8.350538,-0.0299 -11.219404,-0.04012 -2.868866,-0.01022 -3.134711,-0.01339 -3.263487,-0.161695 -0.128776,-0.148307 -0.120466,-0.441735 -0.108834,-1.926845 0.01163,-1.485111 0.02658,-4.161707 0.03032,-5.55618 0.0037,-1.394472 -0.0037,-1.506612 -0.08225,-1.562687 -0.07851,-0.05608 -0.22803,-0.05608 -1.24757,-0.05466 -1.01954,0.0014 -2.908984,0.0042 -3.913563,-0.0018 -1.004579,-0.0061 -1.124198,-0.02101 -1.184012,0.04254 -0.05981,0.06355 -0.05981,0.205599 -0.112914,3.045049 -0.0531,2.83945 -0.159298,8.376071 -0.227352,11.215467 -0.06805,2.839396 -0.09796,2.981443 -0.04936,3.104807 0.0486,0.123364 0.175697,0.228032 1.170087,1.29345 0.99439,1.065419 2.855999,3.091509 3.850374,4.160649 0.994375,1.06914 1.121471,1.18128 1.173807,1.3682 0.05234,0.18691 0.02991,0.44858 -1.037171,13.59032 -1.067077,13.14174 -3.178655,39.16174 -4.251188,52.33176 -1.072533,13.17002 -1.105851,13.48798 -1.302327,13.64714 -0.196475,0.15915 -0.556091,0.15949 -2.285797,0.15435 -1.729705,-0.005 -4.829375,-0.0157 -6.507846,-0.0214 -1.678471,-0.006 -1.935678,-0.006 -2.060546,-0.11311 -0.124868,-0.1068 -0.117388,-0.31972 -0.109908,-0.85235 0.0075,-0.53263 0.01496,-1.38494 0.01787,-1.90349 0.0029,-0.51855 0.0012,-0.70332 0.102168,-0.79671 0.100928,-0.0934 0.30445,-0.0954 0.615555,-0.0964 0.311105,-0.001 0.729779,-0.001 0.939121,-0.001 0.209343,0 0.208622,-4.3e-4 1.045987,-0.004 z"
       id="path2" /><path
       id="path3"
       style="fill:url(#linearGradient12);fill-opacity:1;fill-rule:evenodd;stroke:none;stroke-width:2.78799;stroke-linecap:round;stroke-linejoin:round"
       d="m 91.829537,111.63505 c -0.442113,0.0134 -0.879954,0.0894 -1.326534,0.21445 -0.44658,0.12505 -0.902136,0.29904 -1.335319,0.53796 -0.433184,0.23892 -0.843588,0.54283 -1.223181,0.92242 -0.379594,0.37959 -0.728062,0.83486 -1.007174,1.35289 -0.279112,0.51803 -0.489274,1.09842 -0.574125,1.74149 -0.08485,0.64308 -0.04441,1.34904 0.08733,1.98541 0.13174,0.63638 0.354889,1.20329 0.669727,1.71463 0.314837,0.51133 0.721413,0.96672 1.145666,1.33738 0.424253,0.37067 0.866377,0.6564 1.133264,0.79944 0.266887,0.14304 0.35853,0.14372 0.40566,0.18707 0.04713,0.0434 0.04981,0.1297 0.04599,2.46134 -0.0038,2.33164 -0.01416,6.90353 -0.01705,9.2444 -0.0029,2.34087 0.0017,2.44814 -0.02222,2.52905 -0.02391,0.0809 -0.07651,0.13544 -0.974617,1.07073 -0.898105,0.9353 -2.642194,2.75106 -3.564641,3.71347 -0.922446,0.96241 -1.022857,1.07124 -1.073319,1.17254 -0.05046,0.1013 -0.05064,0.19546 -0.05064,0.24236 0,0.0469 -2e-6,0.047 -0.0031,6.75824 -0.0031,6.7112 -0.0097,20.8063 -0.01395,27.54044 -0.0043,6.73415 -0.0068,6.93925 0.06511,7.0404 0.07195,0.10115 0.21836,0.1034 0.772046,0.1049 0.553686,0.001 1.514551,0.002 2.108915,0.002 0.594365,0 0.822332,-8.6e-4 0.938444,-0.11524 0.116112,-0.11437 0.120388,-0.3421 0.113688,-6.98045 -0.0067,-6.63836 -0.02449,-19.68722 -0.03566,-26.26765 -0.01116,-6.58042 -0.01575,-6.69163 0.0155,-6.76754 0.03126,-0.0759 0.09824,-0.1163 1.015958,-1.02061 0.917716,-0.90432 2.686224,-2.67262 3.617351,-3.60598 0.931126,-0.93337 1.024701,-1.03156 1.073836,-1.12758 0.04913,-0.096 0.05358,-0.18975 0.05581,-2.79777 0.0022,-2.60801 0.0026,-7.73033 0.0026,-10.33838 0,-2.60806 -1.57e-4,-2.70185 0.0646,-2.77554 0.06475,-0.0737 0.194487,-0.12703 0.49816,-0.33022 0.303674,-0.20319 0.781429,-0.55623 1.169955,-0.92242 0.388526,-0.3662 0.687529,-0.74561 0.948779,-1.13637 0.261251,-0.39076 0.484816,-0.79286 0.636654,-1.264 0.151838,-0.47114 0.232064,-1.01133 0.245463,-1.4981 0.0134,-0.48677 -0.04015,-0.92 -0.167432,-1.39785 -0.127276,-0.47784 -0.328301,-1.00017 -0.562756,-1.44229 -0.234455,-0.44211 -0.502634,-0.80405 -0.859896,-1.15238 -0.357262,-0.34833 -0.803345,-0.68308 -1.265556,-0.9555 -0.462211,-0.27242 -0.940292,-0.48234 -1.402498,-0.61185 -0.462206,-0.12951 -0.90871,-0.17876 -1.350822,-0.16536 z m -0.01373,4.02073 c 0.924401,5e-5 1.673709,0.71434 1.673571,1.59535 -4.6e-5,0.8809 -0.7493,1.595 -1.673571,1.59505 -0.92427,-5e-5 -1.673524,-0.71415 -1.67357,-1.59505 -1.38e-4,-0.88101 0.74917,-1.5953 1.67357,-1.59535 z" /><path
       id="path3-5"
       style="fill:url(#linearGradient14);fill-opacity:1;fill-rule:evenodd;stroke:none;stroke-width:2.78799;stroke-linecap:round;stroke-linejoin:round"
       d="m 91.829573,111.63513 c -0.442113,0.0134 -0.879954,0.0894 -1.326534,0.21445 -0.44658,0.12505 -0.902136,0.29904 -1.335319,0.53796 -0.433184,0.23892 -0.844105,0.54283 -1.223698,0.92242 -0.379593,0.37959 -0.727545,0.83486 -1.006657,1.35289 -0.279112,0.51803 -0.489274,1.09842 -0.574125,1.74149 -0.08485,0.64308 -0.04441,1.34904 0.08733,1.98541 0.13174,0.63638 0.354889,1.20329 0.669727,1.71463 0.314837,0.51133 0.721413,0.96672 1.145666,1.33738 0.424253,0.37067 0.866377,0.6564 1.133264,0.79944 0.266887,0.14304 0.35853,0.14372 0.40566,0.18707 0.04713,0.0434 0.04932,0.12967 0.02894,1.79058 -0.02038,1.66092 -0.06324,4.89296 -0.08268,6.56343 -0.01944,1.67047 -0.01536,1.77737 -0.03927,1.85828 -0.02391,0.0809 -0.07623,0.13566 -1.056267,1.12655 -0.980035,0.99089 -2.887353,2.91816 -3.891752,3.93619 -1.004399,1.01803 -1.105539,1.12653 -1.156002,1.22783 -0.05046,0.10131 -0.05064,0.19495 -0.05064,0.24185 0,0.0469 -1.2e-5,0.047 0,0.047 1.1e-5,3e-5 8.6e-5,3.9e-4 0,1.81746 -8.7e-5,1.81706 -2e-5,5.53786 0.0036,7.45174 0.0036,1.91388 0.01091,2.06469 0.06873,2.19211 0.05782,0.12743 0.166399,0.23163 1.816943,1.87896 1.650544,1.64733 4.841784,4.8364 6.493144,6.49211 1.651359,1.6557 1.761515,1.77701 1.822111,1.91719 0.0606,0.14018 0.07157,0.29892 0.08268,0.45786 -0.03714,7.08306 -0.07467,14.31039 -0.09405,17.87797 -0.01938,3.56758 -0.02235,3.772 0.04961,3.87315 0.07195,0.10115 0.218436,0.10289 0.821139,0.10439 0.602703,0.001 1.661389,0.003 2.304769,0.003 0.64338,0 0.871424,-8.6e-4 0.987536,-0.11524 0.116112,-0.11438 0.120469,-0.34196 0.125574,-2.42207 0.0051,-2.08011 0.01093,-6.01263 -0.02222,-9.83299 -0.03315,-3.82037 -0.105187,-7.52884 -0.14056,-9.44439 -0.03537,-1.91554 -0.03387,-2.03847 -0.07286,-2.1425 -0.03899,-0.10404 -0.118308,-0.18899 -1.777152,-1.85932 -1.658844,-1.67032 -4.897564,-4.92572 -6.570658,-6.62078 -1.673094,-1.69507 -1.780452,-1.82971 -1.83193,-1.99161 -0.05148,-0.16191 -0.0468,-0.35107 -0.03876,-1.68259 0.008,-1.33151 0.01931,-3.80563 0.02274,-5.09839 0.0034,-1.29277 -0.0013,-1.40408 0.03411,-1.49139 0.0354,-0.0873 0.110988,-0.15021 1.090889,-1.12809 0.979902,-0.97788 2.863928,-2.87048 3.852995,-3.86592 0.989067,-0.99544 1.082892,-1.09341 1.176672,-1.19166 0.0045,-0.0938 0.0086,-0.1879 0.02739,-2.12596 0.01879,-1.93807 0.05218,-5.71821 0.06873,-7.65587 0.01655,-1.93765 0.01638,-2.0316 0.08113,-2.1053 0.06475,-0.0737 0.194487,-0.12753 0.49816,-0.33072 0.303674,-0.2032 0.781429,-0.55572 1.169955,-0.92191 0.388526,-0.3662 0.687529,-0.74561 0.948779,-1.13637 0.26125,-0.39076 0.484816,-0.79286 0.636654,-1.264 0.151838,-0.47114 0.232064,-1.01133 0.245463,-1.4981 0.0134,-0.48677 -0.04016,-0.92 -0.167432,-1.39785 -0.127276,-0.47784 -0.328302,-1.00069 -0.562756,-1.44281 -0.234455,-0.44211 -0.502634,-0.80353 -0.859896,-1.15186 -0.357262,-0.34833 -0.803862,-0.68309 -1.266073,-0.9555 -0.462211,-0.27242 -0.939775,-0.48234 -1.401981,-0.61185 -0.462207,-0.12951 -0.90871,-0.17876 -1.350822,-0.16536 z m 0.04116,4.02362 c 0.875498,5e-5 1.585216,0.70458 1.585273,1.57369 -5.2e-5,0.86911 -0.709772,1.57365 -1.585273,1.5737 -0.87566,1.7e-4 -1.585629,-0.70443 -1.585681,-1.5737 5.7e-5,-0.86926 0.710024,-1.57386 1.585681,-1.57369 z"
       transform="translate(26.406621,1.0101944)" /><path
       id="path4"
       style="fill:url(#linearGradient9);fill-opacity:1;fill-rule:evenodd;stroke:none;stroke-width:2.78799;stroke-linecap:round;stroke-linejoin:round"
       d="m 105.15792,98.038977 c -0.52431,-0.0054 -1.0297,0.05108 -1.6676,0.253215 -0.63791,0.202136 -1.40843,0.549952 -2.03656,1.064017 -0.62812,0.514064 -1.11382,1.194411 -1.454179,1.967321 -0.34036,0.77291 -0.535384,1.63827 -0.529684,2.46807 0.0057,0.8298 0.212002,1.62412 0.537433,2.31252 0.32542,0.6884 0.76978,1.27112 1.22215,1.71721 0.45236,0.44608 0.91271,0.75544 1.20096,0.9219 0.28824,0.16646 0.40447,0.18967 0.46147,0.27957 0.0571,0.0899 0.0542,0.24648 0.0532,5.17798 -0.001,4.9315 -8.7e-4,14.63621 0.004,19.56728 0.005,4.93107 0.0127,5.08703 -0.03,5.21829 -0.0427,0.13125 -0.13626,0.23806 -1.6583,1.77973 -1.522045,1.54167 -4.472285,4.51813 -5.996531,6.06475 -1.524247,1.54662 -1.622767,1.66333 -1.678967,1.79317 -0.05616,0.12985 -0.07024,0.27278 -0.05736,6.10867 0.01287,5.83588 0.05296,17.36368 0.07286,23.12779 h -5.17e-4 c 0.01986,5.76414 0.02034,5.76457 0.01654,5.85287 -0.0038,0.0883 -0.01168,0.26499 0.09198,0.35709 0.103663,0.0921 0.318805,0.0996 0.971517,0.1111 0.652712,0.0116 1.742853,0.0273 2.43396,0.0233 0.691106,-0.004 0.983231,-0.0269 1.12913,-0.14211 0.1459,-0.11518 0.145727,-0.3226 0.145727,-3.64371 0,-3.32111 -1.51e-4,-9.75604 0.01137,-13.18472 0.01152,-3.42867 0.03475,-3.85063 0.157613,-4.36511 0.122862,-0.51449 0.345299,-1.1213 0.629419,-1.65882 0.284119,-0.53753 0.629565,-1.00599 1.082629,-1.42833 0.45306,-0.42234 1.01393,-0.79872 1.64744,-1.10588 0.63351,-0.30715 1.33993,-0.54478 2.01952,-0.66766 0.67959,-0.1229 1.33234,-0.13067 1.94665,-0.0424 0.61432,0.0883 1.19007,0.27221 1.78903,0.56017 0.59896,0.28796 1.22081,0.67984 1.7353,1.14825 0.5145,0.46842 0.92141,1.01357 1.2516,1.60869 0.3302,0.59512 0.58384,1.2402 0.7643,1.89291 0.18046,0.65271 0.28794,1.31283 0.34364,4.76353 0.0558,3.4507 0.0596,9.69179 0.0646,12.88914 0.005,3.19735 0.0123,3.35106 0.10439,3.42976 0.0921,0.0785 0.26953,0.0822 0.78548,0.0822 0.51595,0 1.37025,-0.004 1.95647,-0.006 0.58623,-0.002 0.90445,-0.003 1.06195,-0.14159 0.15749,-0.13862 0.15461,-0.41504 0.15761,-3.36259 0.003,-2.94755 0.0122,-8.56559 0.002,-11.67422 -0.0106,-3.10864 -0.0412,-3.70787 -0.0868,-4.32738 -0.0456,-0.61952 -0.10627,-1.25924 -0.20878,-1.85777 -0.1025,-0.59853 -0.24699,-1.15554 -0.46715,-1.76734 -0.22017,-0.6118 -0.51598,-1.27857 -0.82993,-1.86035 -0.31395,-0.58179 -0.64593,-1.07858 -1.00665,-1.52807 -0.36072,-0.44949 -0.74972,-0.85175 -1.24075,-1.27072 -0.49104,-0.41898 -1.08412,-0.85439 -1.69034,-1.21802 -0.60622,-0.36363 -1.22585,-0.65503 -1.89032,-0.88676 -0.66446,-0.23172 -1.37358,-0.40423 -2.07688,-0.50023 -0.70329,-0.096 -1.40061,-0.11582 -2.09444,-0.0806 -0.69382,0.0352 -1.38373,0.12601 -1.9818,0.28526 -0.59807,0.15924 -1.1044,0.38711 -1.61075,0.62787 -0.50635,0.24077 -1.013042,0.494 -1.451595,0.7462 -0.438552,0.2522 -0.808801,0.50369 -1.043863,0.68678 -0.235062,0.1831 -0.334847,0.29828 -0.388607,0.25218 -0.05375,-0.0461 -0.06153,-0.25349 -0.07441,-1.24437 -0.01288,-0.99089 -0.03061,-2.76559 -0.03721,-3.73103 -0.0066,-0.96544 -0.0015,-1.12159 0.05271,-1.25677 0.05423,-0.13519 0.157437,-0.24886 1.64486,-1.75959 1.487425,-1.51074 4.357995,-4.41756 5.854425,-5.92832 1.49644,-1.51075 1.61817,-1.62529 1.68207,-1.7539 0.0636,-0.1286 0.0697,-0.27092 0.0687,-5.51284 -0.001,-5.24192 -0.009,-15.57763 -0.0134,-20.81216 -0.004,-5.23453 -0.004,-5.36501 0.0775,-5.43791 0.0816,-0.0729 0.24457,-0.0879 0.58652,-0.28009 0.34194,-0.19216 0.86288,-0.56149 1.33739,-1.04283 0.47451,-0.48134 0.90247,-1.07483 1.21646,-1.81074 0.31398,-0.73591 0.51361,-1.61406 0.47491,-2.47737 -0.0387,-0.86332 -0.3153,-1.71168 -0.68936,-2.41949 -0.37405,-0.70782 -0.84514,-1.275237 -1.40199,-1.72031 -0.55684,-0.445073 -1.19982,-0.767616 -1.79265,-0.962732 -0.59284,-0.19512 -1.13554,-0.262801 -1.65985,-0.268201 z m -0.0805,3.920983 c 0.91363,6e-5 1.65427,0.74587 1.65433,1.66589 1.7e-4,0.92019 -0.74053,1.66627 -1.65433,1.66632 -0.91381,-5e-5 -1.65451,-0.74613 -1.65434,-1.66632 6e-5,-0.92002 0.7407,-1.66583 1.65434,-1.66589 z" /></g></svg>
